# xmcd
#
# Track frame offsets: 
#        150
#        6674
#        34920
#        52195
#        63991
#        84342
#        108929
#        112863
#        127958
#        153951
#        171827
#        174074
#        195162
#
# Disc length: 2700 seconds
#
# Revision: 0
# Processed by: cddbd v1.5.2PL0 Copyright (c) Steve Scherf et al.
# Submitted via: ExactAudioCopy v0.95b3
#
DISCID=990a8a0d
DTITLE=Greg Boerner - World So Blue
DYEAR=2005
DGENRE=Blues
TTITLE0=Intro
TTITLE1=World So Blue
TTITLE2=Adele
TTITLE3=Heaven Bound
TTITLE4=This Love
TTITLE5=Gold/The Can't Tell Me
TTITLE6=Intro #2
TTITLE7=Marywood
TTITLE8=Don't Wake Me From This Dream
TTITLE9=Melody
TTITLE10=Intro #3
TTITLE11=Watchin' The Girls Go By
TTITLE12=All For The Love Of God
EXTD=
EXTT0=
EXTT1=
EXTT2=
EXTT3=
EXTT4=
EXTT5=
EXTT6=
EXTT7=
EXTT8=
EXTT9=
EXTT10=
EXTT11=
EXTT12=
PLAYORDER=
